<mxfile host="Electron" agent="Mozilla/5.0 (Windows NT 10.0; Win64; x64) AppleWebKit/537.36 (KHTML, like Gecko) draw.io/24.7.17 Chrome/128.0.6613.36 Electron/32.0.1 Safari/537.36" version="24.7.17">
  <diagram id="C5RBs43oDa-KdzZeNtuy" name="Page-1">
    <mxGraphModel dx="4175" dy="1688" grid="1" gridSize="10" guides="1" tooltips="1" connect="1" arrows="1" fold="1" page="1" pageScale="1" pageWidth="827" pageHeight="1169" math="0" shadow="0">
      <root>
        <mxCell id="WIyWlLk6GJQsqaUBKTNV-0" />
        <mxCell id="WIyWlLk6GJQsqaUBKTNV-1" parent="WIyWlLk6GJQsqaUBKTNV-0" />
        <mxCell id="WIyWlLk6GJQsqaUBKTNV-2" value="" style="rounded=0;html=1;jettySize=auto;orthogonalLoop=1;fontSize=11;endArrow=block;endFill=0;endSize=8;strokeWidth=1;shadow=0;labelBackgroundColor=none;edgeStyle=orthogonalEdgeStyle;" parent="WIyWlLk6GJQsqaUBKTNV-1" source="WIyWlLk6GJQsqaUBKTNV-3" edge="1">
          <mxGeometry relative="1" as="geometry">
            <mxPoint x="20" y="260" as="targetPoint" />
          </mxGeometry>
        </mxCell>
        <mxCell id="WIyWlLk6GJQsqaUBKTNV-3" value="Запуск клиента" style="rounded=1;whiteSpace=wrap;html=1;fontSize=12;glass=0;strokeWidth=1;shadow=0;" parent="WIyWlLk6GJQsqaUBKTNV-1" vertex="1">
          <mxGeometry x="-40" y="190" width="120" height="40" as="geometry" />
        </mxCell>
        <mxCell id="RF6HIcGBYQWFodLnKSyG-0" value="Вход / Регистрация" style="rounded=0;whiteSpace=wrap;html=1;" parent="WIyWlLk6GJQsqaUBKTNV-1" vertex="1">
          <mxGeometry x="-40" y="260" width="120" height="60" as="geometry" />
        </mxCell>
        <mxCell id="RF6HIcGBYQWFodLnKSyG-1" value="" style="endArrow=classic;html=1;rounded=0;exitX=0.5;exitY=1;exitDx=0;exitDy=0;entryX=0.5;entryY=0;entryDx=0;entryDy=0;" parent="WIyWlLk6GJQsqaUBKTNV-1" source="RF6HIcGBYQWFodLnKSyG-0" edge="1" target="VKw7LbPnoNwn0uKHPJzk-53">
          <mxGeometry width="50" height="50" relative="1" as="geometry">
            <mxPoint x="10" y="380" as="sourcePoint" />
            <mxPoint x="20" y="380" as="targetPoint" />
            <Array as="points" />
          </mxGeometry>
        </mxCell>
        <mxCell id="VKw7LbPnoNwn0uKHPJzk-80" style="edgeStyle=orthogonalEdgeStyle;rounded=0;orthogonalLoop=1;jettySize=auto;html=1;entryX=1;entryY=0.5;entryDx=0;entryDy=0;" edge="1" parent="WIyWlLk6GJQsqaUBKTNV-1">
          <mxGeometry relative="1" as="geometry">
            <mxPoint x="85.05000000000001" y="500.05263157894706" as="sourcePoint" />
            <mxPoint x="280.05000000000047" y="750" as="targetPoint" />
            <Array as="points">
              <mxPoint x="300.05" y="500" />
              <mxPoint x="300.05" y="750" />
            </Array>
          </mxGeometry>
        </mxCell>
        <mxCell id="VKw7LbPnoNwn0uKHPJzk-81" style="edgeStyle=orthogonalEdgeStyle;rounded=0;orthogonalLoop=1;jettySize=auto;html=1;entryX=1;entryY=0.5;entryDx=0;entryDy=0;" edge="1" parent="WIyWlLk6GJQsqaUBKTNV-1" source="RF6HIcGBYQWFodLnKSyG-2" target="VKw7LbPnoNwn0uKHPJzk-24">
          <mxGeometry relative="1" as="geometry">
            <Array as="points">
              <mxPoint x="300" y="500" />
              <mxPoint x="300" y="1120" />
            </Array>
          </mxGeometry>
        </mxCell>
        <mxCell id="VKw7LbPnoNwn0uKHPJzk-82" style="edgeStyle=orthogonalEdgeStyle;rounded=0;orthogonalLoop=1;jettySize=auto;html=1;entryX=1;entryY=0.5;entryDx=0;entryDy=0;" edge="1" parent="WIyWlLk6GJQsqaUBKTNV-1" source="RF6HIcGBYQWFodLnKSyG-2" target="VKw7LbPnoNwn0uKHPJzk-26">
          <mxGeometry relative="1" as="geometry">
            <Array as="points">
              <mxPoint x="300" y="500" />
              <mxPoint x="300" y="1820" />
              <mxPoint x="-40" y="1820" />
              <mxPoint x="-40" y="1860" />
            </Array>
          </mxGeometry>
        </mxCell>
        <mxCell id="VKw7LbPnoNwn0uKHPJzk-102" style="edgeStyle=orthogonalEdgeStyle;rounded=0;orthogonalLoop=1;jettySize=auto;html=1;entryX=0.5;entryY=0;entryDx=0;entryDy=0;" edge="1" parent="WIyWlLk6GJQsqaUBKTNV-1" source="RF6HIcGBYQWFodLnKSyG-2" target="VKw7LbPnoNwn0uKHPJzk-29">
          <mxGeometry relative="1" as="geometry">
            <Array as="points">
              <mxPoint x="300" y="500" />
              <mxPoint x="300" y="1450" />
              <mxPoint x="160" y="1450" />
            </Array>
          </mxGeometry>
        </mxCell>
        <mxCell id="VKw7LbPnoNwn0uKHPJzk-103" style="edgeStyle=orthogonalEdgeStyle;rounded=0;orthogonalLoop=1;jettySize=auto;html=1;entryX=0.5;entryY=0;entryDx=0;entryDy=0;" edge="1" parent="WIyWlLk6GJQsqaUBKTNV-1" source="RF6HIcGBYQWFodLnKSyG-2" target="VKw7LbPnoNwn0uKHPJzk-25">
          <mxGeometry relative="1" as="geometry">
            <mxPoint x="-110" y="1461.7391304347825" as="targetPoint" />
            <Array as="points">
              <mxPoint x="300" y="500" />
              <mxPoint x="300" y="1450" />
              <mxPoint x="-110" y="1450" />
            </Array>
          </mxGeometry>
        </mxCell>
        <mxCell id="VKw7LbPnoNwn0uKHPJzk-108" style="edgeStyle=orthogonalEdgeStyle;rounded=0;orthogonalLoop=1;jettySize=auto;html=1;entryX=1;entryY=0.5;entryDx=0;entryDy=0;" edge="1" parent="WIyWlLk6GJQsqaUBKTNV-1" source="RF6HIcGBYQWFodLnKSyG-2" target="VKw7LbPnoNwn0uKHPJzk-107">
          <mxGeometry relative="1" as="geometry">
            <Array as="points">
              <mxPoint x="300" y="500" />
              <mxPoint x="300" y="2230" />
            </Array>
          </mxGeometry>
        </mxCell>
        <mxCell id="RF6HIcGBYQWFodLnKSyG-2" value="Выбор группы действий" style="rounded=0;whiteSpace=wrap;html=1;" parent="WIyWlLk6GJQsqaUBKTNV-1" vertex="1">
          <mxGeometry x="-55" y="470" width="150" height="60" as="geometry" />
        </mxCell>
        <mxCell id="RF6HIcGBYQWFodLnKSyG-56" value="Создать Аэропорт" style="rounded=0;whiteSpace=wrap;html=1;" parent="WIyWlLk6GJQsqaUBKTNV-1" vertex="1">
          <mxGeometry x="-110" y="860" width="120" height="60" as="geometry" />
        </mxCell>
        <mxCell id="RF6HIcGBYQWFodLnKSyG-57" value="" style="endArrow=classic;html=1;rounded=0;" parent="WIyWlLk6GJQsqaUBKTNV-1" edge="1">
          <mxGeometry width="50" height="50" relative="1" as="geometry">
            <mxPoint x="87" y="780" as="sourcePoint" />
            <mxPoint x="87" y="860" as="targetPoint" />
          </mxGeometry>
        </mxCell>
        <mxCell id="RF6HIcGBYQWFodLnKSyG-59" value="Удалить Аэропорт" style="rounded=0;whiteSpace=wrap;html=1;" parent="WIyWlLk6GJQsqaUBKTNV-1" vertex="1">
          <mxGeometry x="30" y="860" width="120" height="60" as="geometry" />
        </mxCell>
        <mxCell id="RF6HIcGBYQWFodLnKSyG-60" value="" style="endArrow=classic;html=1;rounded=0;" parent="WIyWlLk6GJQsqaUBKTNV-1" edge="1">
          <mxGeometry width="50" height="50" relative="1" as="geometry">
            <mxPoint x="229.76" y="780" as="sourcePoint" />
            <mxPoint x="229.76" y="860" as="targetPoint" />
          </mxGeometry>
        </mxCell>
        <mxCell id="RF6HIcGBYQWFodLnKSyG-61" value="Изменить Аэропорт" style="rounded=0;whiteSpace=wrap;html=1;" parent="WIyWlLk6GJQsqaUBKTNV-1" vertex="1">
          <mxGeometry x="170" y="860" width="120" height="60" as="geometry" />
        </mxCell>
        <mxCell id="RF6HIcGBYQWFodLnKSyG-62" value="" style="endArrow=classic;html=1;rounded=0;" parent="WIyWlLk6GJQsqaUBKTNV-1" edge="1">
          <mxGeometry width="50" height="50" relative="1" as="geometry">
            <mxPoint x="-190.24" y="1150" as="sourcePoint" />
            <mxPoint x="-190.24" y="1230" as="targetPoint" />
          </mxGeometry>
        </mxCell>
        <mxCell id="RF6HIcGBYQWFodLnKSyG-63" value="Создать самолет" style="rounded=0;whiteSpace=wrap;html=1;" parent="WIyWlLk6GJQsqaUBKTNV-1" vertex="1">
          <mxGeometry x="-110" y="1230" width="120" height="60" as="geometry" />
        </mxCell>
        <mxCell id="RF6HIcGBYQWFodLnKSyG-72" value="" style="endArrow=classic;html=1;rounded=0;" parent="WIyWlLk6GJQsqaUBKTNV-1" edge="1">
          <mxGeometry width="50" height="50" relative="1" as="geometry">
            <mxPoint x="-190.24" y="780" as="sourcePoint" />
            <mxPoint x="-190.24" y="860" as="targetPoint" />
            <Array as="points">
              <mxPoint x="-190.24" y="780" />
            </Array>
          </mxGeometry>
        </mxCell>
        <mxCell id="RF6HIcGBYQWFodLnKSyG-73" value="Просмотреть Аэропорты" style="rounded=0;whiteSpace=wrap;html=1;" parent="WIyWlLk6GJQsqaUBKTNV-1" vertex="1">
          <mxGeometry x="-250" y="860" width="120" height="60" as="geometry" />
        </mxCell>
        <mxCell id="RF6HIcGBYQWFodLnKSyG-74" value="Удалить самолет" style="rounded=0;whiteSpace=wrap;html=1;" parent="WIyWlLk6GJQsqaUBKTNV-1" vertex="1">
          <mxGeometry x="30" y="1230" width="120" height="60" as="geometry" />
        </mxCell>
        <mxCell id="RF6HIcGBYQWFodLnKSyG-75" value="" style="endArrow=classic;html=1;rounded=0;" parent="WIyWlLk6GJQsqaUBKTNV-1" edge="1">
          <mxGeometry width="50" height="50" relative="1" as="geometry">
            <mxPoint x="229.76" y="1150" as="sourcePoint" />
            <mxPoint x="229.76" y="1230" as="targetPoint" />
          </mxGeometry>
        </mxCell>
        <mxCell id="RF6HIcGBYQWFodLnKSyG-76" value="Изменить самолет" style="rounded=0;whiteSpace=wrap;html=1;" parent="WIyWlLk6GJQsqaUBKTNV-1" vertex="1">
          <mxGeometry x="170" y="1230" width="120" height="60" as="geometry" />
        </mxCell>
        <mxCell id="RF6HIcGBYQWFodLnKSyG-77" value="" style="endArrow=classic;html=1;rounded=0;" parent="WIyWlLk6GJQsqaUBKTNV-1" edge="1">
          <mxGeometry width="50" height="50" relative="1" as="geometry">
            <mxPoint x="-180.24" y="1520" as="sourcePoint" />
            <mxPoint x="-180.24" y="1600" as="targetPoint" />
          </mxGeometry>
        </mxCell>
        <mxCell id="RF6HIcGBYQWFodLnKSyG-78" value="Создать полет" style="rounded=0;whiteSpace=wrap;html=1;" parent="WIyWlLk6GJQsqaUBKTNV-1" vertex="1">
          <mxGeometry x="-100" y="1600" width="120" height="60" as="geometry" />
        </mxCell>
        <mxCell id="RF6HIcGBYQWFodLnKSyG-79" value="" style="endArrow=classic;html=1;rounded=0;" parent="WIyWlLk6GJQsqaUBKTNV-1" edge="1">
          <mxGeometry width="50" height="50" relative="1" as="geometry">
            <mxPoint x="-40.24000000000001" y="1520" as="sourcePoint" />
            <mxPoint x="-40.24000000000001" y="1600" as="targetPoint" />
          </mxGeometry>
        </mxCell>
        <mxCell id="RF6HIcGBYQWFodLnKSyG-82" value="Просмотреть самолеты" style="rounded=0;whiteSpace=wrap;html=1;" parent="WIyWlLk6GJQsqaUBKTNV-1" vertex="1">
          <mxGeometry x="-250" y="1230" width="120" height="60" as="geometry" />
        </mxCell>
        <mxCell id="RF6HIcGBYQWFodLnKSyG-92" value="" style="endArrow=classic;html=1;rounded=0;" parent="WIyWlLk6GJQsqaUBKTNV-1" edge="1">
          <mxGeometry width="50" height="50" relative="1" as="geometry">
            <mxPoint x="-190.24" y="1890" as="sourcePoint" />
            <mxPoint x="-190.24" y="1970" as="targetPoint" />
          </mxGeometry>
        </mxCell>
        <mxCell id="RF6HIcGBYQWFodLnKSyG-93" value="Просмотреть диспетчеров" style="rounded=0;whiteSpace=wrap;html=1;" parent="WIyWlLk6GJQsqaUBKTNV-1" vertex="1">
          <mxGeometry x="-250" y="1970" width="120" height="60" as="geometry" />
        </mxCell>
        <mxCell id="RF6HIcGBYQWFodLnKSyG-97" value="Просмотреть время" style="rounded=0;whiteSpace=wrap;html=1;" parent="WIyWlLk6GJQsqaUBKTNV-1" vertex="1">
          <mxGeometry x="170" y="1600" width="120" height="60" as="geometry" />
        </mxCell>
        <mxCell id="RF6HIcGBYQWFodLnKSyG-109" value="" style="endArrow=classic;html=1;rounded=0;" parent="WIyWlLk6GJQsqaUBKTNV-1" edge="1">
          <mxGeometry width="50" height="50" relative="1" as="geometry">
            <mxPoint x="-50.24000000000001" y="1890" as="sourcePoint" />
            <mxPoint x="-50.24000000000001" y="1970" as="targetPoint" />
          </mxGeometry>
        </mxCell>
        <mxCell id="RF6HIcGBYQWFodLnKSyG-110" value="Пропуск времени" style="rounded=0;whiteSpace=wrap;html=1;" parent="WIyWlLk6GJQsqaUBKTNV-1" vertex="1">
          <mxGeometry x="30" y="1600" width="120" height="60" as="geometry" />
        </mxCell>
        <mxCell id="RF6HIcGBYQWFodLnKSyG-80" value="Просмотреть полеты" style="rounded=0;whiteSpace=wrap;html=1;" parent="WIyWlLk6GJQsqaUBKTNV-1" vertex="1">
          <mxGeometry x="-240" y="1600" width="120" height="60" as="geometry" />
        </mxCell>
        <mxCell id="VKw7LbPnoNwn0uKHPJzk-8" value="Посмотреть диспетчера по id" style="rounded=0;whiteSpace=wrap;html=1;" vertex="1" parent="WIyWlLk6GJQsqaUBKTNV-1">
          <mxGeometry x="-110" y="1970" width="120" height="60" as="geometry" />
        </mxCell>
        <mxCell id="VKw7LbPnoNwn0uKHPJzk-15" value="Выбор действия с аэропортами" style="rounded=0;whiteSpace=wrap;html=1;" vertex="1" parent="WIyWlLk6GJQsqaUBKTNV-1">
          <mxGeometry x="-250" y="720" width="540" height="60" as="geometry" />
        </mxCell>
        <mxCell id="VKw7LbPnoNwn0uKHPJzk-16" value="" style="endArrow=classic;html=1;rounded=0;" edge="1" parent="WIyWlLk6GJQsqaUBKTNV-1">
          <mxGeometry width="50" height="50" relative="1" as="geometry">
            <mxPoint x="-50.620000000000005" y="780" as="sourcePoint" />
            <mxPoint x="-50.620000000000005" y="860" as="targetPoint" />
          </mxGeometry>
        </mxCell>
        <mxCell id="VKw7LbPnoNwn0uKHPJzk-17" value="" style="endArrow=classic;html=1;rounded=0;" edge="1" parent="WIyWlLk6GJQsqaUBKTNV-1">
          <mxGeometry width="50" height="50" relative="1" as="geometry">
            <mxPoint x="89.37" y="1150" as="sourcePoint" />
            <mxPoint x="89.37" y="1230" as="targetPoint" />
          </mxGeometry>
        </mxCell>
        <mxCell id="VKw7LbPnoNwn0uKHPJzk-18" value="" style="endArrow=classic;html=1;rounded=0;" edge="1" parent="WIyWlLk6GJQsqaUBKTNV-1">
          <mxGeometry width="50" height="50" relative="1" as="geometry">
            <mxPoint x="-50.629999999999995" y="1150" as="sourcePoint" />
            <mxPoint x="-50.629999999999995" y="1230" as="targetPoint" />
          </mxGeometry>
        </mxCell>
        <mxCell id="VKw7LbPnoNwn0uKHPJzk-19" value="" style="endArrow=classic;html=1;rounded=0;" edge="1" parent="WIyWlLk6GJQsqaUBKTNV-1">
          <mxGeometry width="50" height="50" relative="1" as="geometry">
            <mxPoint x="90" y="1520" as="sourcePoint" />
            <mxPoint x="90" y="1600" as="targetPoint" />
          </mxGeometry>
        </mxCell>
        <mxCell id="VKw7LbPnoNwn0uKHPJzk-20" value="" style="endArrow=classic;html=1;rounded=0;" edge="1" parent="WIyWlLk6GJQsqaUBKTNV-1">
          <mxGeometry width="50" height="50" relative="1" as="geometry">
            <mxPoint x="230" y="1520" as="sourcePoint" />
            <mxPoint x="230" y="1600" as="targetPoint" />
          </mxGeometry>
        </mxCell>
        <mxCell id="VKw7LbPnoNwn0uKHPJzk-24" value="Выбор действия с самолетами" style="rounded=0;whiteSpace=wrap;html=1;" vertex="1" parent="WIyWlLk6GJQsqaUBKTNV-1">
          <mxGeometry x="-250" y="1090" width="540" height="60" as="geometry" />
        </mxCell>
        <mxCell id="VKw7LbPnoNwn0uKHPJzk-25" value="Выбор действия с полетами" style="rounded=0;whiteSpace=wrap;html=1;" vertex="1" parent="WIyWlLk6GJQsqaUBKTNV-1">
          <mxGeometry x="-240" y="1460" width="260" height="60" as="geometry" />
        </mxCell>
        <mxCell id="VKw7LbPnoNwn0uKHPJzk-26" value="Выбор действия с диспетчерами" style="rounded=0;whiteSpace=wrap;html=1;" vertex="1" parent="WIyWlLk6GJQsqaUBKTNV-1">
          <mxGeometry x="-250" y="1830" width="400" height="60" as="geometry" />
        </mxCell>
        <mxCell id="VKw7LbPnoNwn0uKHPJzk-27" value="" style="endArrow=classic;html=1;rounded=0;" edge="1" parent="WIyWlLk6GJQsqaUBKTNV-1">
          <mxGeometry width="50" height="50" relative="1" as="geometry">
            <mxPoint x="89.75999999999999" y="1890" as="sourcePoint" />
            <mxPoint x="89.75999999999999" y="1970" as="targetPoint" />
          </mxGeometry>
        </mxCell>
        <mxCell id="VKw7LbPnoNwn0uKHPJzk-28" value="Изменить диспетчера" style="rounded=0;whiteSpace=wrap;html=1;" vertex="1" parent="WIyWlLk6GJQsqaUBKTNV-1">
          <mxGeometry x="30" y="1970" width="120" height="60" as="geometry" />
        </mxCell>
        <mxCell id="VKw7LbPnoNwn0uKHPJzk-29" value="Выбор действия со временем" style="rounded=0;whiteSpace=wrap;html=1;" vertex="1" parent="WIyWlLk6GJQsqaUBKTNV-1">
          <mxGeometry x="30" y="1460" width="260" height="60" as="geometry" />
        </mxCell>
        <mxCell id="VKw7LbPnoNwn0uKHPJzk-30" value="" style="endArrow=classic;html=1;rounded=0;" edge="1" parent="WIyWlLk6GJQsqaUBKTNV-1">
          <mxGeometry width="50" height="50" relative="1" as="geometry">
            <mxPoint x="87" y="920" as="sourcePoint" />
            <mxPoint x="87" y="1000" as="targetPoint" />
          </mxGeometry>
        </mxCell>
        <mxCell id="VKw7LbPnoNwn0uKHPJzk-31" value="" style="endArrow=classic;html=1;rounded=0;" edge="1" parent="WIyWlLk6GJQsqaUBKTNV-1">
          <mxGeometry width="50" height="50" relative="1" as="geometry">
            <mxPoint x="229.76" y="920" as="sourcePoint" />
            <mxPoint x="229.76" y="1000" as="targetPoint" />
          </mxGeometry>
        </mxCell>
        <mxCell id="VKw7LbPnoNwn0uKHPJzk-32" value="" style="endArrow=classic;html=1;rounded=0;" edge="1" parent="WIyWlLk6GJQsqaUBKTNV-1">
          <mxGeometry width="50" height="50" relative="1" as="geometry">
            <mxPoint x="-190.24" y="1290" as="sourcePoint" />
            <mxPoint x="-190.24" y="1370" as="targetPoint" />
          </mxGeometry>
        </mxCell>
        <mxCell id="VKw7LbPnoNwn0uKHPJzk-33" value="" style="endArrow=classic;html=1;rounded=0;" edge="1" parent="WIyWlLk6GJQsqaUBKTNV-1">
          <mxGeometry width="50" height="50" relative="1" as="geometry">
            <mxPoint x="-190.24" y="920" as="sourcePoint" />
            <mxPoint x="-190.24" y="1000" as="targetPoint" />
            <Array as="points">
              <mxPoint x="-190.24" y="920" />
            </Array>
          </mxGeometry>
        </mxCell>
        <mxCell id="VKw7LbPnoNwn0uKHPJzk-34" value="" style="endArrow=classic;html=1;rounded=0;" edge="1" parent="WIyWlLk6GJQsqaUBKTNV-1">
          <mxGeometry width="50" height="50" relative="1" as="geometry">
            <mxPoint x="229.76" y="1290" as="sourcePoint" />
            <mxPoint x="229.76" y="1370" as="targetPoint" />
          </mxGeometry>
        </mxCell>
        <mxCell id="VKw7LbPnoNwn0uKHPJzk-35" value="" style="endArrow=classic;html=1;rounded=0;" edge="1" parent="WIyWlLk6GJQsqaUBKTNV-1">
          <mxGeometry width="50" height="50" relative="1" as="geometry">
            <mxPoint x="-180.24" y="1660" as="sourcePoint" />
            <mxPoint x="-180.24" y="1740" as="targetPoint" />
          </mxGeometry>
        </mxCell>
        <mxCell id="VKw7LbPnoNwn0uKHPJzk-36" value="" style="endArrow=classic;html=1;rounded=0;" edge="1" parent="WIyWlLk6GJQsqaUBKTNV-1">
          <mxGeometry width="50" height="50" relative="1" as="geometry">
            <mxPoint x="-40.24000000000001" y="1660" as="sourcePoint" />
            <mxPoint x="-40.24000000000001" y="1740" as="targetPoint" />
          </mxGeometry>
        </mxCell>
        <mxCell id="VKw7LbPnoNwn0uKHPJzk-37" value="" style="endArrow=classic;html=1;rounded=0;" edge="1" parent="WIyWlLk6GJQsqaUBKTNV-1">
          <mxGeometry width="50" height="50" relative="1" as="geometry">
            <mxPoint x="-190.24" y="2030" as="sourcePoint" />
            <mxPoint x="-190.24" y="2110" as="targetPoint" />
          </mxGeometry>
        </mxCell>
        <mxCell id="VKw7LbPnoNwn0uKHPJzk-38" value="" style="endArrow=classic;html=1;rounded=0;" edge="1" parent="WIyWlLk6GJQsqaUBKTNV-1">
          <mxGeometry width="50" height="50" relative="1" as="geometry">
            <mxPoint x="-50.24000000000001" y="2030" as="sourcePoint" />
            <mxPoint x="-50.24000000000001" y="2110" as="targetPoint" />
          </mxGeometry>
        </mxCell>
        <mxCell id="VKw7LbPnoNwn0uKHPJzk-39" value="" style="endArrow=classic;html=1;rounded=0;" edge="1" parent="WIyWlLk6GJQsqaUBKTNV-1">
          <mxGeometry width="50" height="50" relative="1" as="geometry">
            <mxPoint x="-50.620000000000005" y="920" as="sourcePoint" />
            <mxPoint x="-50.620000000000005" y="1000" as="targetPoint" />
          </mxGeometry>
        </mxCell>
        <mxCell id="VKw7LbPnoNwn0uKHPJzk-40" value="" style="endArrow=classic;html=1;rounded=0;" edge="1" parent="WIyWlLk6GJQsqaUBKTNV-1">
          <mxGeometry width="50" height="50" relative="1" as="geometry">
            <mxPoint x="89.37" y="1290" as="sourcePoint" />
            <mxPoint x="89.37" y="1370" as="targetPoint" />
          </mxGeometry>
        </mxCell>
        <mxCell id="VKw7LbPnoNwn0uKHPJzk-41" value="" style="endArrow=classic;html=1;rounded=0;" edge="1" parent="WIyWlLk6GJQsqaUBKTNV-1">
          <mxGeometry width="50" height="50" relative="1" as="geometry">
            <mxPoint x="-50.629999999999995" y="1290" as="sourcePoint" />
            <mxPoint x="-50.629999999999995" y="1370" as="targetPoint" />
          </mxGeometry>
        </mxCell>
        <mxCell id="VKw7LbPnoNwn0uKHPJzk-42" value="" style="endArrow=classic;html=1;rounded=0;" edge="1" parent="WIyWlLk6GJQsqaUBKTNV-1">
          <mxGeometry width="50" height="50" relative="1" as="geometry">
            <mxPoint x="90" y="1660" as="sourcePoint" />
            <mxPoint x="90" y="1740" as="targetPoint" />
          </mxGeometry>
        </mxCell>
        <mxCell id="VKw7LbPnoNwn0uKHPJzk-43" value="" style="endArrow=classic;html=1;rounded=0;" edge="1" parent="WIyWlLk6GJQsqaUBKTNV-1">
          <mxGeometry width="50" height="50" relative="1" as="geometry">
            <mxPoint x="230" y="1660" as="sourcePoint" />
            <mxPoint x="230" y="1740" as="targetPoint" />
          </mxGeometry>
        </mxCell>
        <mxCell id="VKw7LbPnoNwn0uKHPJzk-44" value="" style="endArrow=classic;html=1;rounded=0;" edge="1" parent="WIyWlLk6GJQsqaUBKTNV-1">
          <mxGeometry width="50" height="50" relative="1" as="geometry">
            <mxPoint x="89.75999999999999" y="2030" as="sourcePoint" />
            <mxPoint x="89.75999999999999" y="2110" as="targetPoint" />
          </mxGeometry>
        </mxCell>
        <mxCell id="VKw7LbPnoNwn0uKHPJzk-100" style="edgeStyle=orthogonalEdgeStyle;rounded=0;orthogonalLoop=1;jettySize=auto;html=1;entryX=0;entryY=0.5;entryDx=0;entryDy=0;" edge="1" parent="WIyWlLk6GJQsqaUBKTNV-1" source="VKw7LbPnoNwn0uKHPJzk-51" target="VKw7LbPnoNwn0uKHPJzk-86">
          <mxGeometry relative="1" as="geometry">
            <Array as="points">
              <mxPoint x="-260" y="1030" />
            </Array>
          </mxGeometry>
        </mxCell>
        <mxCell id="VKw7LbPnoNwn0uKHPJzk-51" value="Выполнение действия" style="rounded=0;whiteSpace=wrap;html=1;" vertex="1" parent="WIyWlLk6GJQsqaUBKTNV-1">
          <mxGeometry x="-250" y="1000" width="540" height="60" as="geometry" />
        </mxCell>
        <mxCell id="VKw7LbPnoNwn0uKHPJzk-53" value="Выполнено удачно?" style="rhombus;whiteSpace=wrap;html=1;" vertex="1" parent="WIyWlLk6GJQsqaUBKTNV-1">
          <mxGeometry x="-65" y="350" width="170" height="80" as="geometry" />
        </mxCell>
        <mxCell id="VKw7LbPnoNwn0uKHPJzk-101" style="edgeStyle=orthogonalEdgeStyle;rounded=0;orthogonalLoop=1;jettySize=auto;html=1;entryX=0;entryY=0.5;entryDx=0;entryDy=0;" edge="1" parent="WIyWlLk6GJQsqaUBKTNV-1" source="VKw7LbPnoNwn0uKHPJzk-60" target="VKw7LbPnoNwn0uKHPJzk-86">
          <mxGeometry relative="1" as="geometry">
            <Array as="points">
              <mxPoint x="-260" y="1400" />
            </Array>
          </mxGeometry>
        </mxCell>
        <mxCell id="VKw7LbPnoNwn0uKHPJzk-60" value="Выполнение действия" style="rounded=0;whiteSpace=wrap;html=1;" vertex="1" parent="WIyWlLk6GJQsqaUBKTNV-1">
          <mxGeometry x="-250" y="1370" width="540" height="60" as="geometry" />
        </mxCell>
        <mxCell id="VKw7LbPnoNwn0uKHPJzk-105" style="edgeStyle=orthogonalEdgeStyle;rounded=0;orthogonalLoop=1;jettySize=auto;html=1;entryX=0;entryY=0.5;entryDx=0;entryDy=0;" edge="1" parent="WIyWlLk6GJQsqaUBKTNV-1" source="VKw7LbPnoNwn0uKHPJzk-61" target="VKw7LbPnoNwn0uKHPJzk-86">
          <mxGeometry relative="1" as="geometry">
            <Array as="points">
              <mxPoint x="-110" y="1810" />
              <mxPoint x="-260" y="1810" />
            </Array>
          </mxGeometry>
        </mxCell>
        <mxCell id="VKw7LbPnoNwn0uKHPJzk-61" value="Выполнение действия" style="rounded=0;whiteSpace=wrap;html=1;" vertex="1" parent="WIyWlLk6GJQsqaUBKTNV-1">
          <mxGeometry x="-240" y="1740" width="260" height="60" as="geometry" />
        </mxCell>
        <mxCell id="VKw7LbPnoNwn0uKHPJzk-106" style="edgeStyle=orthogonalEdgeStyle;rounded=0;orthogonalLoop=1;jettySize=auto;html=1;entryX=0;entryY=0.5;entryDx=0;entryDy=0;" edge="1" parent="WIyWlLk6GJQsqaUBKTNV-1" source="VKw7LbPnoNwn0uKHPJzk-62" target="VKw7LbPnoNwn0uKHPJzk-86">
          <mxGeometry relative="1" as="geometry">
            <Array as="points">
              <mxPoint x="-260" y="2140" />
            </Array>
          </mxGeometry>
        </mxCell>
        <mxCell id="VKw7LbPnoNwn0uKHPJzk-62" value="Выполнение действия" style="rounded=0;whiteSpace=wrap;html=1;" vertex="1" parent="WIyWlLk6GJQsqaUBKTNV-1">
          <mxGeometry x="-250" y="2110" width="400" height="60" as="geometry" />
        </mxCell>
        <mxCell id="VKw7LbPnoNwn0uKHPJzk-104" style="edgeStyle=orthogonalEdgeStyle;rounded=0;orthogonalLoop=1;jettySize=auto;html=1;entryX=0;entryY=0.5;entryDx=0;entryDy=0;" edge="1" parent="WIyWlLk6GJQsqaUBKTNV-1" source="VKw7LbPnoNwn0uKHPJzk-63" target="VKw7LbPnoNwn0uKHPJzk-86">
          <mxGeometry relative="1" as="geometry">
            <Array as="points">
              <mxPoint x="160" y="1810" />
              <mxPoint x="-260" y="1810" />
            </Array>
          </mxGeometry>
        </mxCell>
        <mxCell id="VKw7LbPnoNwn0uKHPJzk-63" value="Выполнение действия" style="rounded=0;whiteSpace=wrap;html=1;" vertex="1" parent="WIyWlLk6GJQsqaUBKTNV-1">
          <mxGeometry x="30" y="1740" width="260" height="60" as="geometry" />
        </mxCell>
        <mxCell id="VKw7LbPnoNwn0uKHPJzk-68" value="" style="endArrow=classic;html=1;rounded=0;entryX=0;entryY=0.5;entryDx=0;entryDy=0;exitX=1;exitY=0.5;exitDx=0;exitDy=0;" edge="1" parent="WIyWlLk6GJQsqaUBKTNV-1" source="VKw7LbPnoNwn0uKHPJzk-53" target="VKw7LbPnoNwn0uKHPJzk-78">
          <mxGeometry relative="1" as="geometry">
            <mxPoint x="30" y="520" as="sourcePoint" />
            <mxPoint x="190" y="520" as="targetPoint" />
            <Array as="points">
              <mxPoint x="150" y="390" />
            </Array>
          </mxGeometry>
        </mxCell>
        <mxCell id="VKw7LbPnoNwn0uKHPJzk-69" value="Нет" style="edgeLabel;resizable=0;html=1;;align=center;verticalAlign=middle;rotation=0;" connectable="0" vertex="1" parent="VKw7LbPnoNwn0uKHPJzk-68">
          <mxGeometry relative="1" as="geometry" />
        </mxCell>
        <mxCell id="VKw7LbPnoNwn0uKHPJzk-74" value="" style="endArrow=classic;html=1;rounded=0;entryX=0.5;entryY=0;entryDx=0;entryDy=0;exitX=0.5;exitY=1;exitDx=0;exitDy=0;" edge="1" parent="WIyWlLk6GJQsqaUBKTNV-1" source="VKw7LbPnoNwn0uKHPJzk-53" target="RF6HIcGBYQWFodLnKSyG-2">
          <mxGeometry relative="1" as="geometry">
            <mxPoint x="-70" y="390" as="sourcePoint" />
            <mxPoint x="-180" y="260" as="targetPoint" />
            <Array as="points">
              <mxPoint x="20" y="430" />
            </Array>
          </mxGeometry>
        </mxCell>
        <mxCell id="VKw7LbPnoNwn0uKHPJzk-75" value="Да" style="edgeLabel;resizable=0;html=1;;align=center;verticalAlign=middle;rotation=0;" connectable="0" vertex="1" parent="VKw7LbPnoNwn0uKHPJzk-74">
          <mxGeometry relative="1" as="geometry" />
        </mxCell>
        <mxCell id="VKw7LbPnoNwn0uKHPJzk-79" style="edgeStyle=orthogonalEdgeStyle;rounded=0;orthogonalLoop=1;jettySize=auto;html=1;entryX=1;entryY=0.5;entryDx=0;entryDy=0;" edge="1" parent="WIyWlLk6GJQsqaUBKTNV-1" source="VKw7LbPnoNwn0uKHPJzk-78" target="RF6HIcGBYQWFodLnKSyG-0">
          <mxGeometry relative="1" as="geometry">
            <Array as="points">
              <mxPoint x="230" y="290" />
            </Array>
          </mxGeometry>
        </mxCell>
        <mxCell id="VKw7LbPnoNwn0uKHPJzk-78" value="Вывод ошибки" style="rounded=0;whiteSpace=wrap;html=1;" vertex="1" parent="WIyWlLk6GJQsqaUBKTNV-1">
          <mxGeometry x="170" y="360" width="120" height="60" as="geometry" />
        </mxCell>
        <mxCell id="VKw7LbPnoNwn0uKHPJzk-86" value="Выполнено удачно?" style="rhombus;whiteSpace=wrap;html=1;" vertex="1" parent="WIyWlLk6GJQsqaUBKTNV-1">
          <mxGeometry x="-260" y="530" width="160" height="80" as="geometry" />
        </mxCell>
        <mxCell id="VKw7LbPnoNwn0uKHPJzk-87" value="" style="endArrow=classic;html=1;rounded=0;entryX=0;entryY=0.5;entryDx=0;entryDy=0;exitX=0.5;exitY=1;exitDx=0;exitDy=0;" edge="1" parent="WIyWlLk6GJQsqaUBKTNV-1" source="VKw7LbPnoNwn0uKHPJzk-86" target="VKw7LbPnoNwn0uKHPJzk-91">
          <mxGeometry relative="1" as="geometry">
            <mxPoint x="-155" y="790" as="sourcePoint" />
            <mxPoint x="5" y="790" as="targetPoint" />
            <Array as="points">
              <mxPoint x="-180" y="660" />
              <mxPoint x="-35" y="660" />
            </Array>
          </mxGeometry>
        </mxCell>
        <mxCell id="VKw7LbPnoNwn0uKHPJzk-88" value="Нет" style="edgeLabel;resizable=0;html=1;;align=center;verticalAlign=middle;rotation=0;" connectable="0" vertex="1" parent="VKw7LbPnoNwn0uKHPJzk-87">
          <mxGeometry relative="1" as="geometry" />
        </mxCell>
        <mxCell id="VKw7LbPnoNwn0uKHPJzk-89" value="Да" style="edgeLabel;resizable=0;html=1;;align=center;verticalAlign=middle;rotation=0;" connectable="0" vertex="1" parent="WIyWlLk6GJQsqaUBKTNV-1">
          <mxGeometry x="-165" y="720" as="geometry" />
        </mxCell>
        <mxCell id="VKw7LbPnoNwn0uKHPJzk-90" style="edgeStyle=orthogonalEdgeStyle;rounded=0;orthogonalLoop=1;jettySize=auto;html=1;entryX=0.5;entryY=1;entryDx=0;entryDy=0;" edge="1" parent="WIyWlLk6GJQsqaUBKTNV-1" source="VKw7LbPnoNwn0uKHPJzk-91" target="RF6HIcGBYQWFodLnKSyG-2">
          <mxGeometry relative="1" as="geometry">
            <Array as="points">
              <mxPoint x="20" y="590" />
              <mxPoint x="20" y="590" />
            </Array>
          </mxGeometry>
        </mxCell>
        <mxCell id="VKw7LbPnoNwn0uKHPJzk-91" value="Вывод ошибки" style="rounded=0;whiteSpace=wrap;html=1;" vertex="1" parent="WIyWlLk6GJQsqaUBKTNV-1">
          <mxGeometry x="-40" y="630" width="120" height="60" as="geometry" />
        </mxCell>
        <mxCell id="VKw7LbPnoNwn0uKHPJzk-98" value="" style="endArrow=classic;html=1;rounded=0;exitX=0.5;exitY=0;exitDx=0;exitDy=0;entryX=0;entryY=0.5;entryDx=0;entryDy=0;" edge="1" parent="WIyWlLk6GJQsqaUBKTNV-1" source="VKw7LbPnoNwn0uKHPJzk-86" target="RF6HIcGBYQWFodLnKSyG-2">
          <mxGeometry relative="1" as="geometry">
            <mxPoint x="40" y="450" as="sourcePoint" />
            <mxPoint x="-180" y="500" as="targetPoint" />
            <Array as="points">
              <mxPoint x="-180" y="500" />
            </Array>
          </mxGeometry>
        </mxCell>
        <mxCell id="VKw7LbPnoNwn0uKHPJzk-99" value="Да" style="edgeLabel;resizable=0;html=1;;align=center;verticalAlign=middle;rotation=0;" connectable="0" vertex="1" parent="VKw7LbPnoNwn0uKHPJzk-98">
          <mxGeometry relative="1" as="geometry" />
        </mxCell>
        <mxCell id="VKw7LbPnoNwn0uKHPJzk-109" style="edgeStyle=orthogonalEdgeStyle;rounded=0;orthogonalLoop=1;jettySize=auto;html=1;entryX=0;entryY=0.5;entryDx=0;entryDy=0;" edge="1" parent="WIyWlLk6GJQsqaUBKTNV-1" source="VKw7LbPnoNwn0uKHPJzk-107" target="VKw7LbPnoNwn0uKHPJzk-86">
          <mxGeometry relative="1" as="geometry">
            <Array as="points">
              <mxPoint x="-260" y="2230" />
            </Array>
          </mxGeometry>
        </mxCell>
        <mxCell id="VKw7LbPnoNwn0uKHPJzk-107" value="Выход" style="rounded=0;whiteSpace=wrap;html=1;" vertex="1" parent="WIyWlLk6GJQsqaUBKTNV-1">
          <mxGeometry x="-250" y="2200" width="400" height="60" as="geometry" />
        </mxCell>
      </root>
    </mxGraphModel>
  </diagram>
</mxfile>
